<svg
          className="absolute inset-0 w-full h-full pointer-events-none"
          width="1560"
          height="340"
          viewBox="0 0 1560 340"
          fill="none"
          xmlns="http://www.w3.org/2000/svg"
        >
          <path
            d="M-79 -178.5H-40V-198H-39V-178.5H0V-198H1V-178.5H40V-198H41V-178.5H80V-198H81V-178.5H120V-198H121V-178.5H160V-198H161V-178.5H200V-198H201V-178.5H240V-198H241V-178.5H280V-198H281V-178.5H320V-198H321V-178.5H360V-198H361V-178.5H400V-198H401V-178.5H440V-198H441V-178.5H480V-198H481V-178.5H520V-198H521V-178.5H560V-198H561V-178.5H600V-198H601V-178.5H640V-198H641V-178.5H680V-198H681V-178.5H720V-198H721V-178.5H760V-198H761V-178.5H800V-198H801V-178.5H840V-198H841V-178.5H880V-198H881V-178.5H920V-198H921V-178.5H960V-198H961V-178.5H1000V-198H1001V-178.5H1040V-198H1041V-178.5H1080V-198H1081V-178.5H1120V-198H1121V-178.5H1160V-198H1161V-178.5H1200V-198H1201V-178.5H1240V-198H1241V-178.5H1280V-198H1281V-178.5H1320V-198H1321V-178.5H1360V-198H1361V-178.5H1400V-198H1401V-178.5H1440V-198H1441V-178.5H1480V-198H1481V-178.5H1520V-198H1521V-178.5H1560V-198H1561V-178.5H1600V-198H1601V-178.5H1640V-198H1641V522H1640V502.5H1601V522H1600V502.5H1561V522H1560V502.5H1521V522H1520V502.5H1481V522H1480V502.5H1441V522H1440V502.5H1401V522H1400V502.5H1361V522H1360V502.5H1321V522H1320V502.5H1281V522H1280V502.5H1241V522H1240V502.5H1201V522H1200V502.5H1161V522H1160V502.5H1121V522H1120V502.5H1081V522H1080V502.5H1041V522H1040V502.5H1001V522H1000V502.5H961V522H960V502.5H921V522H920V502.5H881V522H880V502.5H841V522H840V502.5H801V522H800V502.5H761V522H760V502.5H721V522H720V502.5H681V522H680V502.5H641V522H640V502.5H601V522H600V502.5H561V522H560V502.5H521V522H520V502.5H481V522H480V502.5H441V522H440V502.5H401V522H400V502.5H361V522H360V502.5H321V522H320V502.5H281V522H280V502.5H241V522H240V502.5H201V522H200V502.5H161V522H160V502.5H121V522H120V502.5H81V522H80V502.5H41V522H40V502.5H1V522H0V502.5H-39V522H-40V502.5H-79V522H-80V-198H-79V-178.5ZM-79 501.5H-40V462.5H-79V501.5ZM-39 501.5H0V462.5H-39V501.5ZM1 501.5H40V462.5H1V501.5ZM41 501.5H80V462.5H41V501.5ZM81 501.5H120V462.5H81V501.5ZM121 501.5H160V462.5H121V501.5ZM161 501.5H200V462.5H161V501.5ZM201 501.5H240V462.5H201V501.5ZM241 501.5H280V462.5H241V501.5ZM281 501.5H320V462.5H281V501.5ZM321 501.5H360V462.5H321V501.5ZM361 501.5H400V462.5H361V501.5ZM401 501.5H440V462.5H401V501.5ZM441 501.5H480V462.5H441V501.5ZM481 501.5H520V462.5H481V501.5ZM521 501.5H560V462.5H521V501.5ZM561 501.5H600V462.5H561V501.5ZM601 501.5H640V462.5H601V501.5ZM641 501.5H680V462.5H641V501.5ZM681 501.5H720V462.5H681V501.5ZM721 501.5H760V462.5H721V501.5ZM761 501.5H800V462.5H761V501.5ZM801 501.5H840V462.5H801V501.5ZM841 501.5H880V462.5H841V501.5ZM881 501.5H920V462.5H881V501.5ZM921 501.5H960V462.5H921V501.5ZM961 501.5H1000V462.5H961V501.5ZM1001 501.5H1040V462.5H1001V501.5ZM1041 501.5H1080V462.5H1041V501.5ZM1081 501.5H1120V462.5H1081V501.5ZM1121 501.5H1160V462.5H1121V501.5ZM1161 501.5H1200V462.5H1161V501.5ZM1201 501.5H1240V462.5H1201V501.5ZM1241 501.5H1280V462.5H1241V501.5ZM1281 501.5H1320V462.5H1281V501.5ZM1321 501.5H1360V462.5H1321V501.5ZM1361 501.5H1400V462.5H1361V501.5ZM1401 501.5H1440V462.5H1401V501.5ZM1441 501.5H1480V462.5H1441V501.5ZM1481 501.5H1520V462.5H1481V501.5ZM1521 501.5H1560V462.5H1521V501.5ZM1561 501.5H1600V462.5H1561V501.5ZM1601 501.5H1640V462.5H1601V501.5ZM-79 461.5H-40V422.5H-79V461.5ZM-39 461.5H0V422.5H-39V461.5ZM1 461.5H40V422.5H1V461.5ZM41 461.5H80V422.5H41V461.5ZM81 461.5H120V422.5H81V461.5ZM121 461.5H160V422.5H121V461.5ZM161 461.5H200V422.5H161V461.5ZM201 461.5H240V422.5H201V461.5ZM241 461.5H280V422.5H241V461.5ZM281 461.5H320V422.5H281V461.5ZM321 461.5H360V422.5H321V461.5ZM361 461.5H400V422.5H361V461.5ZM401 461.5H440V422.5H401V461.5ZM441 461.5H480V422.5H441V461.5ZM481 461.5H520V422.5H481V461.5ZM521 461.5H560V422.5H521V461.5ZM561 461.5H600V422.5H561V461.5ZM601 461.5H640V422.5H601V461.5ZM641 461.5H680V422.5H641V461.5ZM681 461.5H720V422.5H681V461.5ZM721 461.5H760V422.5H721V461.5ZM761 461.5H800V422.5H761V461.5ZM801 461.5H840V422.5H801V461.5ZM841 461.5H880V422.5H841V461.5ZM881 461.5H920V422.5H881V461.5ZM921 461.5H960V422.5H921V461.5ZM961 461.5H1000V422.5H961V461.5ZM1001 461.5H1040V422.5H1001V461.5ZM1041 461.5H1080V422.5H1041V461.5ZM1081 461.5H1120V422.5H1081V461.5ZM1121 461.5H1160V422.5H1121V461.5ZM1161 461.5H1200V422.5H1161V461.5ZM1201 461.5H1240V422.5H1201V461.5ZM1241 461.5H1280V422.5H1241V461.5ZM1281 461.5H1320V422.5H1281V461.5ZM1321 461.5H1360V422.5H1321V461.5ZM1361 461.5H1400V422.5H1361V461.5ZM1401 461.5H1440V422.5H1401V461.5ZM1441 461.5H1480V422.5H1441V461.5ZM1481 461.5H1520V422.5H1481V461.5ZM1521 461.5H1560V422.5H1521V461.5ZM1561 461.5H1600V422.5H1561V461.5ZM1601 461.5H1640V422.5H1601V461.5ZM-79 421.5H-40V382.5H-79V421.5ZM-39 421.5H0V382.5H-39V421.5ZM1 421.5H40V382.5H1V421.5ZM41 421.5H80V382.5H41V421.5ZM81 421.5H120V382.5H81V421.5ZM121 421.5H160V382.5H121V421.5ZM161 421.5H200V382.5H161V421.5ZM201 421.5H240V382.5H201V421.5ZM241 421.5H280V382.5H241V421.5ZM281 421.5H320V382.5H281V421.5ZM321 421.5H360V382.5H321V421.5ZM361 421.5H400V382.5H361V421.5ZM401 421.5H440V382.5H401V421.5ZM441 421.5H480V382.5H441V421.5ZM481 421.5H520V382.5H481V421.5ZM521 421.5H560V382.5H521V421.5ZM561 421.5H600V382.5H561V421.5ZM601 421.5H640V382.5H601V421.5ZM641 421.5H680V382.5H641V421.5ZM681 421.5H720V382.5H681V421.5ZM721 421.5H760V382.5H721V421.5ZM761 421.5H800V382.5H761V421.5ZM801 421.5H840V382.5H801V421.5ZM841 421.5H880V382.5H841V421.5ZM881 421.5H920V382.5H881V421.5ZM921 421.5H960V382.5H921V421.5ZM961 421.5H1000V382.5H961V421.5ZM1001 421.5H1040V382.5H1001V421.5ZM1041 421.5H1080V382.5H1041V421.5ZM1081 421.5H1120V382.5H1081V421.5ZM1121 421.5H1160V382.5H1121V421.5ZM1161 421.5H1200V382.5H1161V421.5ZM1201 421.5H1240V382.5H1201V421.5ZM1241 421.5H1280V382.5H1241V421.5ZM1281 421.5H1320V382.5H1281V421.5ZM1321 421.5H1360V382.5H1321V421.5ZM1361 421.5H1400V382.5H1361V421.5ZM1401 421.5H1440V382.5H1401V421.5ZM1441 421.5H1480V382.5H1441V421.5ZM1481 421.5H1520V382.5H1481V421.5ZM1521 421.5H1560V382.5H1521V421.5ZM1561 421.5H1600V382.5H1561V421.5ZM1601 421.5H1640V382.5H1601V421.5ZM-79 381.5H-40V342.5H-79V381.5ZM-39 381.5H0V342.5H-39V381.5ZM1 381.5H40V342.5H1V381.5ZM41 381.5H80V342.5H41V381.5ZM81 381.5H120V342.5H81V381.5ZM121 381.5H160V342.5H121V381.5ZM161 381.5H200V342.5H161V381.5ZM201 381.5H240V342.5H201V381.5ZM241 381.5H280V342.5H241V381.5ZM281 381.5H320V342.5H281V381.5ZM321 381.5H360V342.5H321V381.5ZM361 381.5H400V342.5H361V381.5ZM401 381.5H440V342.5H401V381.5ZM441 381.5H480V342.5H441V381.5ZM481 381.5H520V342.5H481V381.5ZM521 381.5H560V342.5H521V381.5ZM561 381.5H600V342.5H561V381.5ZM601 381.5H640V342.5H601V381.5ZM641 381.5H680V342.5H641V381.5ZM681 381.5H720V342.5H681V381.5ZM721 381.5H760V342.5H721V381.5ZM761 381.5H800V342.5H761V381.5ZM801 381.5H840V342.5H801V381.5ZM841 381.5H880V342.5H841V381.5ZM881 381.5H920V342.5H881V381.5ZM921 381.5H960V342.5H921V381.5ZM961 381.5H1000V342.5H961V381.5ZM1001 381.5H1040V342.5H1001V381.5ZM1041 381.5H1080V342.5H1041V381.5ZM1081 381.5H1120V342.5H1081V381.5ZM1121 381.5H1160V342.5H1121V381.5ZM1161 381.5H1200V342.5H1161V381.5ZM1201 381.5H1240V342.5H1201V381.5ZM1241 381.5H1280V342.5H1241V381.5ZM1281 381.5H1320V342.5H1281V381.5ZM1321 381.5H1360V342.5H1321V381.5ZM1361 381.5H1400V342.5H1361V381.5ZM1401 381.5H1440V342.5H1401V381.5ZM1441 381.5H1480V342.5H1441V381.5ZM1481 381.5H1520V342.5H1481V381.5ZM1521 381.5H1560V342.5H1521V381.5ZM1561 381.5H1600V342.5H1561V381.5ZM1601 381.5H1640V342.5H1601V381.5ZM-79 341.5H-40V302.5H-79V341.5ZM-39 341.5H0V302.5H-39V341.5ZM1 341.5H40V302.5H1V341.5ZM41 341.5H80V302.5H41V341.5ZM81 341.5H120V302.5H81V341.5ZM121 341.5H160V302.5H121V341.5ZM161 341.5H200V302.5H161V341.5ZM201 341.5H240V302.5H201V341.5ZM241 341.5H280V302.5H241V341.5ZM281 341.5H320V302.5H281V341.5ZM321 341.5H360V302.5H321V341.5ZM361 341.5H400V302.5H361V341.5ZM401 341.5H440V302.5H401V341.5ZM441 341.5H480V302.5H441V341.5ZM481 341.5H520V302.5H481V341.5ZM521 341.5H560V302.5H521V341.5ZM561 341.5H600V302.5H561V341.5ZM601 341.5H640V302.5H601V341.5ZM641 341.5H680V302.5H641V341.5ZM681 341.5H720V302.5H681V341.5ZM721 341.5H760V302.5H721V341.5ZM761 341.5H800V302.5H761V341.5ZM801 341.5H840V302.5H801V341.5ZM841 341.5H880V302.5H841V341.5ZM881 341.5H920V302.5H881V341.5ZM921 341.5H960V302.5H921V341.5ZM961 341.5H1000V302.5H961V341.5ZM1001 341.5H1040V302.5H1001V341.5ZM1041 341.5H1080V302.5H1041V341.5ZM1081 341.5H1120V302.5H1081V341.5ZM1121 341.5H1160V302.5H1121V341.5ZM1161 341.5H1200V302.5H1161V341.5ZM1201 341.5H1240V302.5H1201V341.5ZM1241 341.5H1280V302.5H1241V341.5ZM1281 341.5H1320V302.5H1281V341.5ZM1321 341.5H1360V302.5H1321V341.5ZM1361 341.5H1400V302.5H1361V341.5ZM1401 341.5H1440V302.5H1401V341.5ZM1441 341.5H1480V302.5H1441V341.5ZM1481 341.5H1520V302.5H1481V341.5ZM1521 341.5H1560V302.5H1521V341.5ZM1561 341.5H1600V302.5H1561V341.5ZM1601 341.5H1640V302.5H1601V341.5ZM-79 301.5H-40V262.5H-79V301.5ZM-39 301.5H0V262.5H-39V301.5ZM1 301.5H40V262.5H1V301.5ZM41 301.5H80V262.5H41V301.5ZM81 301.5H120V262.5H81V301.5ZM121 301.5H160V262.5H121V301.5ZM161 301.5H200V262.5H161V301.5ZM201 301.5H240V262.5H201V301.5ZM241 301.5H280V262.5H241V301.5ZM281 301.5H320V262.5H281V301.5ZM321 301.5H360V262.5H321V301.5ZM361 301.5H400V262.5H361V301.5ZM401 301.5H440V262.5H401V301.5ZM441 301.5H480V262.5H441V301.5ZM481 301.5H520V262.5H481V301.5ZM521 301.5H560V262.5H521V301.5ZM561 301.5H600V262.5H561V301.5ZM601 301.5H640V262.5H601V301.5ZM641 301.5H680V262.5H641V301.5ZM681 301.5H720V262.5H681V301.5ZM721 301.5H760V262.5H721V301.5ZM761 301.5H800V262.5H761V301.5ZM801 301.5H840V262.5H801V301.5ZM841 301.5H880V262.5H841V301.5ZM881 301.5H920V262.5H881V301.5ZM921 301.5H960V262.5H921V301.5ZM961 301.5H1000V262.5H961V301.5ZM1001 301.5H1040V262.5H1001V301.5ZM1041 301.5H1080V262.5H1041V301.5ZM1081 301.5H1120V262.5H1081V301.5ZM1121 301.5H1160V262.5H1121V301.5ZM1161 301.5H1200V262.5H1161V301.5ZM1201 301.5H1240V262.5H1201V301.5ZM1241 301.5H1280V262.5H1241V301.5ZM1281 301.5H1320V262.5H1281V301.5ZM1321 301.5H1360V262.5H1321V301.5ZM1361 301.5H1400V262.5H1361V301.5ZM1401 301.5H1440V262.5H1401V301.5ZM1441 301.5H1480V262.5H1441V301.5ZM1481 301.5H1520V262.5H1481V301.5ZM1521 301.5H1560V262.5H1521V301.5ZM1561 301.5H1600V262.5H1561V301.5ZM1601 301.5H1640V262.5H1601V301.5ZM-79 261.5H-40V222.5H-79V261.5ZM-39 261.5H0V222.5H-39V261.5ZM1 261.5H40V222.5H1V261.5ZM41 261.5H80V222.5H41V261.5ZM81 261.5H120V222.5H81V261.5ZM121 261.5H160V222.5H121V261.5ZM161 261.5H200V222.5H161V261.5ZM201 261.5H240V222.5H201V261.5ZM241 261.5H280V222.5H241V261.5ZM281 261.5H320V222.5H281V261.5ZM321 261.5H360V222.5H321V261.5ZM361 261.5H400V222.5H361V261.5ZM401 261.5H440V222.5H401V261.5ZM441 261.5H480V222.5H441V261.5ZM481 261.5H520V222.5H481V261.5ZM521 261.5H560V222.5H521V261.5ZM561 261.5H600V222.5H561V261.5ZM601 261.5H640V222.5H601V261.5ZM641 261.5H680V222.5H641V261.5ZM681 261.5H720V222.5H681V261.5ZM721 261.5H760V222.5H721V261.5ZM761 261.5H800V222.5H761V261.5ZM801 261.5H840V222.5H801V261.5ZM841 261.5H880V222.5H841V261.5ZM881 261.5H920V222.5H881V261.5ZM921 261.5H960V222.5H921V261.5ZM961 261.5H1000V222.5H961V261.5ZM1001 261.5H1040V222.5H1001V261.5ZM1041 261.5H1080V222.5H1041V261.5ZM1081 261.5H1120V222.5H1081V261.5ZM1121 261.5H1160V222.5H1121V261.5ZM1161 261.5H1200V222.5H1161V261.5ZM1201 261.5H1240V222.5H1201V261.5ZM1241 261.5H1280V222.5H1241V261.5ZM1281 261.5H1320V222.5H1281V261.5ZM1321 261.5H1360V222.5H1321V261.5ZM1361 261.5H1400V222.5H1361V261.5ZM1401 261.5H1440V222.5H1401V261.5ZM1441 261.5H1480V222.5H1441V261.5ZM1481 261.5H1520V222.5H1481V261.5ZM1521 261.5H1560V222.5H1521V261.5ZM1561 261.5H1600V222.5H1561V261.5ZM1601 261.5H1640V222.5H1601V261.5ZM-79 221.5H-40V182.5H-79V221.5ZM-39 221.5H0V182.5H-39V221.5ZM1 221.5H40V182.5H1V221.5ZM41 221.5H80V182.5H41V221.5ZM81 221.5H120V182.5H81V221.5ZM121 221.5H160V182.5H121V221.5ZM161 221.5H200V182.5H161V221.5ZM201 221.5H240V182.5H201V221.5ZM241 221.5H280V182.5H241V221.5ZM281 221.5H320V182.5H281V221.5ZM321 221.5H360V182.5H321V221.5ZM361 221.5H400V182.5H361V221.5ZM401 221.5H440V182.5H401V221.5ZM441 221.5H480V182.5H441V221.5ZM481 221.5H520V182.5H481V221.5ZM521 221.5H560V182.5H521V221.5ZM561 221.5H600V182.5H561V221.5ZM601 221.5H640V182.5H601V221.5ZM641 221.5H680V182.5H641V221.5ZM681 221.5H720V182.5H681V221.5ZM721 221.5H760V182.5H721V221.5ZM761 221.5H800V182.5H761V221.5ZM801 221.5H840V182.5H801V221.5ZM841 221.5H880V182.5H841V221.5ZM881 221.5H920V182.5H881V221.5ZM921 221.5H960V182.5H921V221.5ZM961 221.5H1000V182.5H961V221.5ZM1001 221.5H1040V182.5H1001V221.5ZM1041 221.5H1080V182.5H1041V221.5ZM1081 221.5H1120V182.5H1081V221.5ZM1121 221.5H1160V182.5H1121V221.5ZM1161 221.5H1200V182.5H1161V221.5ZM1201 221.5H1240V182.5H1201V221.5ZM1241 221.5H1280V182.5H1241V221.5ZM1281 221.5H1320V182.5H1281V221.5ZM1321 221.5H1360V182.5H1321V221.5ZM1361 221.5H1400V182.5H1361V221.5ZM1401 221.5H1440V182.5H1401V221.5ZM1441 221.5H1480V182.5H1441V221.5ZM1481 221.5H1520V182.5H1481V221.5ZM1521 221.5H1560V182.5H1521V221.5ZM1561 221.5H1600V182.5H1561V221.5ZM1601 221.5H1640V182.5H1601V221.5ZM-79 181.5H-40V142.5H-79V181.5ZM-39 181.5H0V142.5H-39V181.5ZM1 181.5H40V142.5H1V181.5ZM41 181.5H80V142.5H41V181.5ZM81 181.5H120V142.5H81V181.5ZM121 181.5H160V142.5H121V181.5ZM161 181.5H200V142.5H161V181.5ZM201 181.5H240V142.5H201V181.5ZM241 181.5H280V142.5H241V181.5ZM281 181.5H320V142.5H281V181.5ZM321 181.5H360V142.5H321V181.5ZM361 181.5H400V142.5H361V181.5ZM401 181.5H440V142.5H401V181.5ZM441 181.5H480V142.5H441V181.5ZM481 181.5H520V142.5H481V181.5ZM521 181.5H560V142.5H521V181.5ZM561 181.5H600V142.5H561V181.5ZM601 181.5H640V142.5H601V181.5ZM641 181.5H680V142.5H641V181.5ZM681 181.5H720V142.5H681V181.5ZM721 181.5H760V142.5H721V181.5ZM761 181.5H800V142.5H761V181.5ZM801 181.5H840V142.5H801V181.5ZM841 181.5H880V142.5H841V181.5ZM881 181.5H920V142.5H881V181.5ZM921 181.5H960V142.5H921V181.5ZM961 181.5H1000V142.5H961V181.5ZM1001 181.5H1040V142.5H1001V181.5ZM1041 181.5H1080V142.5H1041V181.5ZM1081 181.5H1120V142.5H1081V181.5ZM1121 181.5H1160V142.5H1121V181.5ZM1161 181.5H1200V142.5H1161V181.5ZM1201 181.5H1240V142.5H1201V181.5ZM1241 181.5H1280V142.5H1241V181.5ZM1281 181.5H1320V142.5H1281V181.5ZM1321 181.5H1360V142.5H1321V181.5ZM1361 181.5H1400V142.5H1361V181.5ZM1401 181.5H1440V142.5H1401V181.5ZM1441 181.5H1480V142.5H1441V181.5ZM1481 181.5H1520V142.5H1481V181.5ZM1521 181.5H1560V142.5H1521V181.5ZM1561 181.5H1600V142.5H1561V181.5ZM1601 181.5H1640V142.5H1601V181.5ZM-79 141.5H-40V102.5H-79V141.5ZM-39 141.5H0V102.5H-39V141.5ZM1 141.5H40V102.5H1V141.5ZM41 141.5H80V102.5H41V141.5ZM81 141.5H120V102.5H81V141.5ZM121 141.5H160V102.5H121V141.5ZM161 141.5H200V102.5H161V141.5ZM201 141.5H240V102.5H201V141.5ZM241 141.5H280V102.5H241V141.5ZM281 141.5H320V102.5H281V141.5ZM321 141.5H360V102.5H321V141.5ZM361 141.5H400V102.5H361V141.5ZM401 141.5H440V102.5H401V141.5ZM441 141.5H480V102.5H441V141.5ZM481 141.5H520V102.5H481V141.5ZM521 141.5H560V102.5H521V141.5ZM561 141.5H600V102.5H561V141.5ZM601 141.5H640V102.5H601V141.5ZM641 141.5H680V102.5H641V141.5ZM681 141.5H720V102.5H681V141.5ZM721 141.5H760V102.5H721V141.5ZM761 141.5H800V102.5H761V141.5ZM801 141.5H840V102.5H801V141.5ZM841 141.5H880V102.5H841V141.5ZM881 141.5H920V102.5H881V141.5ZM921 141.5H960V102.5H921V141.5ZM961 141.5H1000V102.5H961V141.5ZM1001 141.5H1040V102.5H1001V141.5ZM1041 141.5H1080V102.5H1041V141.5ZM1081 141.5H1120V102.5H1081V141.5ZM1121 141.5H1160V102.5H1121V141.5ZM1161 141.5H1200V102.5H1161V141.5ZM1201 141.5H1240V102.5H1201V141.5ZM1241 141.5H1280V102.5H1241V141.5ZM1281 141.5H1320V102.5H1281V141.5ZM1321 141.5H1360V102.5H1321V141.5ZM1361 141.5H1400V102.5H1361V141.5ZM1401 141.5H1440V102.5H1401V141.5ZM1441 141.5H1480V102.5H1441V141.5ZM1481 141.5H1520V102.5H1481V141.5ZM1521 141.5H1560V102.5H1521V141.5ZM1561 141.5H1600V102.5H1561V141.5ZM1601 141.5H1640V102.5H1601V141.5ZM-79 101.5H-40V62.5H-79V101.5ZM-39 101.5H0V62.5H-39V101.5ZM1 101.5H40V62.5H1V101.5ZM41 101.5H80V62.5H41V101.5ZM81 101.5H120V62.5H81V101.5ZM121 101.5H160V62.5H121V101.5ZM161 101.5H200V62.5H161V101.5ZM201 101.5H240V62.5H201V101.5ZM241 101.5H280V62.5H241V101.5ZM281 101.5H320V62.5H281V101.5ZM321 101.5H360V62.5H321V101.5ZM361 101.5H400V62.5H361V101.5ZM401 101.5H440V62.5H401V101.5ZM441 101.5H480V62.5H441V101.5ZM481 101.5H520V62.5H481V101.5ZM521 101.5H560V62.5H521V101.5ZM561 101.5H600V62.5H561V101.5ZM601 101.5H640V62.5H601V101.5ZM641 101.5H680V62.5H641V101.5ZM681 101.5H720V62.5H681V101.5ZM721 101.5H760V62.5H721V101.5ZM761 101.5H800V62.5H761V101.5ZM801 101.5H840V62.5H801V101.5ZM841 101.5H880V62.5H841V101.5ZM881 101.5H920V62.5H881V101.5ZM921 101.5H960V62.5H921V101.5ZM961 101.5H1000V62.5H961V101.5ZM1001 101.5H1040V62.5H1001V101.5ZM1041 101.5H1080V62.5H1041V101.5ZM1081 101.5H1120V62.5H1081V101.5ZM1121 101.5H1160V62.5H1121V101.5ZM1161 101.5H1200V62.5H1161V101.5ZM1201 101.5H1240V62.5H1201V101.5ZM1241 101.5H1280V62.5H1241V101.5ZM1281 101.5H1320V62.5H1281V101.5ZM1321 101.5H1360V62.5H1321V101.5ZM1361 101.5H1400V62.5H1361V101.5ZM1401 101.5H1440V62.5H1401V101.5ZM1441 101.5H1480V62.5H1441V101.5ZM1481 101.5H1520V62.5H1481V101.5ZM1521 101.5H1560V62.5H1521V101.5ZM1561 101.5H1600V62.5H1561V101.5ZM1601 101.5H1640V62.5H1601V101.5ZM-79 61.5H-40V22.5H-79V61.5ZM-39 61.5H0V22.5H-39V61.5ZM1 61.5H40V22.5H1V61.5ZM41 61.5H80V22.5H41V61.5ZM81 61.5H120V22.5H81V61.5ZM121 61.5H160V22.5H121V61.5ZM161 61.5H200V22.5H161V61.5ZM201 61.5H240V22.5H201V61.5ZM241 61.5H280V22.5H241V61.5ZM281 61.5H320V22.5H281V61.5ZM321 61.5H360V22.5H321V61.5ZM361 61.5H400V22.5H361V61.5ZM401 61.5H440V22.5H401V61.5ZM441 61.5H480V22.5H441V61.5ZM481 61.5H520V22.5H481V61.5ZM521 61.5H560V22.5H521V61.5ZM561 61.5H600V22.5H561V61.5ZM601 61.5H640V22.5H601V61.5ZM641 61.5H680V22.5H641V61.5ZM681 61.5H720V22.5H681V61.5ZM721 61.5H760V22.5H721V61.5ZM761 61.5H800V22.5H761V61.5ZM801 61.5H840V22.5H801V61.5ZM841 61.5H880V22.5H841V61.5ZM881 61.5H920V22.5H881V61.5ZM921 61.5H960V22.5H921V61.5ZM961 61.5H1000V22.5H961V61.5ZM1001 61.5H1040V22.5H1001V61.5ZM1041 61.5H1080V22.5H1041V61.5ZM1081 61.5H1120V22.5H1081V61.5ZM1121 61.5H1160V22.5H1121V61.5ZM1161 61.5H1200V22.5H1161V61.5ZM1201 61.5H1240V22.5H1201V61.5ZM1241 61.5H1280V22.5H1241V61.5ZM1281 61.5H1320V22.5H1281V61.5ZM1321 61.5H1360V22.5H1321V61.5ZM1361 61.5H1400V22.5H1361V61.5ZM1401 61.5H1440V22.5H1401V61.5ZM1441 61.5H1480V22.5H1441V61.5ZM1481 61.5H1520V22.5H1481V61.5ZM1521 61.5H1560V22.5H1521V61.5ZM1561 61.5H1600V22.5H1561V61.5ZM1601 61.5H1640V22.5H1601V61.5ZM-79 21.5H-40V-17.5H-79V21.5ZM-39 21.5H0V-17.5H-39V21.5ZM1 21.5H40V-17.5H1V21.5ZM41 21.5H80V-17.5H41V21.5ZM81 21.5H120V-17.5H81V21.5ZM121 21.5H160V-17.5H121V21.5ZM161 21.5H200V-17.5H161V21.5ZM201 21.5H240V-17.5H201V21.5ZM241 21.5H280V-17.5H241V21.5ZM281 21.5H320V-17.5H281V21.5ZM321 21.5H360V-17.5H321V21.5ZM361 21.5H400V-17.5H361V21.5ZM401 21.5H440V-17.5H401V21.5ZM441 21.5H480V-17.5H441V21.5ZM481 21.5H520V-17.5H481V21.5ZM521 21.5H560V-17.5H521V21.5ZM561 21.5H600V-17.5H561V21.5ZM601 21.5H640V-17.5H601V21.5ZM641 21.5H680V-17.5H641V21.5ZM681 21.5H720V-17.5H681V21.5ZM721 21.5H760V-17.5H721V21.5ZM761 21.5H800V-17.5H761V21.5ZM801 21.5H840V-17.5H801V21.5ZM841 21.5H880V-17.5H841V21.5ZM881 21.5H920V-17.5H881V21.5ZM921 21.5H960V-17.5H921V21.5ZM961 21.5H1000V-17.5H961V21.5ZM1001 21.5H1040V-17.5H1001V21.5ZM1041 21.5H1080V-17.5H1041V21.5ZM1081 21.5H1120V-17.5H1081V21.5ZM1121 21.5H1160V-17.5H1121V21.5ZM1161 21.5H1200V-17.5H1161V21.5ZM1201 21.5H1240V-17.5H1201V21.5ZM1241 21.5H1280V-17.5H1241V21.5ZM1281 21.5H1320V-17.5H1281V21.5ZM1321 21.5H1360V-17.5H1321V21.5ZM1361 21.5H1400V-17.5H1361V21.5ZM1401 21.5H1440V-17.5H1401V21.5ZM1441 21.5H1480V-17.5H1441V21.5ZM1481 21.5H1520V-17.5H1481V21.5ZM1521 21.5H1560V-17.5H1521V21.5ZM1561 21.5H1600V-17.5H1561V21.5ZM1601 21.5H1640V-17.5H1601V21.5ZM-79 -18.5H-40V-57.5H-79V-18.5ZM-39 -18.5H0V-57.5H-39V-18.5ZM1 -18.5H40V-57.5H1V-18.5ZM41 -18.5H80V-57.5H41V-18.5ZM81 -18.5H120V-57.5H81V-18.5ZM121 -18.5H160V-57.5H121V-18.5ZM161 -18.5H200V-57.5H161V-18.5ZM201 -18.5H240V-57.5H201V-18.5ZM241 -18.5H280V-57.5H241V-18.5ZM281 -18.5H320V-57.5H281V-18.5ZM321 -18.5H360V-57.5H321V-18.5ZM361 -18.5H400V-57.5H361V-18.5ZM401 -18.5H440V-57.5H401V-18.5ZM441 -18.5H480V-57.5H441V-18.5ZM481 -18.5H520V-57.5H481V-18.5ZM521 -18.5H560V-57.5H521V-18.5ZM561 -18.5H600V-57.5H561V-18.5ZM601 -18.5H640V-57.5H601V-18.5ZM641 -18.5H680V-57.5H641V-18.5ZM681 -18.5H720V-57.5H681V-18.5ZM721 -18.5H760V-57.5H721V-18.5ZM761 -18.5H800V-57.5H761V-18.5ZM801 -18.5H840V-57.5H801V-18.5ZM841 -18.5H880V-57.5H841V-18.5ZM881 -18.5H920V-57.5H881V-18.5ZM921 -18.5H960V-57.5H921V-18.5ZM961 -18.5H1000V-57.5H961V-18.5ZM1001 -18.5H1040V-57.5H1001V-18.5ZM1041 -18.5H1080V-57.5H1041V-18.5ZM1081 -18.5H1120V-57.5H1081V-18.5ZM1121 -18.5H1160V-57.5H1121V-18.5ZM1161 -18.5H1200V-57.5H1161V-18.5ZM1201 -18.5H1240V-57.5H1201V-18.5ZM1241 -18.5H1280V-57.5H1241V-18.5ZM1281 -18.5H1320V-57.5H1281V-18.5ZM1321 -18.5H1360V-57.5H1321V-18.5ZM1361 -18.5H1400V-57.5H1361V-18.5ZM1401 -18.5H1440V-57.5H1401V-18.5ZM1441 -18.5H1480V-57.5H1441V-18.5ZM1481 -18.5H1520V-57.5H1481V-18.5ZM1521 -18.5H1560V-57.5H1521V-18.5ZM1561 -18.5H1600V-57.5H1561V-18.5ZM1601 -18.5H1640V-57.5H1601V-18.5ZM-79 -58.5H-40V-97.5H-79V-58.5ZM-39 -58.5H0V-97.5H-39V-58.5ZM1 -58.5H40V-97.5H1V-58.5ZM41 -58.5H80V-97.5H41V-58.5ZM81 -58.5H120V-97.5H81V-58.5ZM121 -58.5H160V-97.5H121V-58.5ZM161 -58.5H200V-97.5H161V-58.5ZM201 -58.5H240V-97.5H201V-58.5ZM241 -58.5H280V-97.5H241V-58.5ZM281 -58.5H320V-97.5H281V-58.5ZM321 -58.5H360V-97.5H321V-58.5ZM361 -58.5H400V-97.5H361V-58.5ZM401 -58.5H440V-97.5H401V-58.5ZM441 -58.5H480V-97.5H441V-58.5ZM481 -58.5H520V-97.5H481V-58.5ZM521 -58.5H560V-97.5H521V-58.5ZM561 -58.5H600V-97.5H561V-58.5ZM601 -58.5H640V-97.5H601V-58.5ZM641 -58.5H680V-97.5H641V-58.5ZM681 -58.5H720V-97.5H681V-58.5ZM721 -58.5H760V-97.5H721V-58.5ZM761 -58.5H800V-97.5H761V-58.5ZM801 -58.5H840V-97.5H801V-58.5ZM841 -58.5H880V-97.5H841V-58.5ZM881 -58.5H920V-97.5H881V-58.5ZM921 -58.5H960V-97.5H921V-58.5ZM961 -58.5H1000V-97.5H961V-58.5ZM1001 -58.5H1040V-97.5H1001V-58.5ZM1041 -58.5H1080V-97.5H1041V-58.5ZM1081 -58.5H1120V-97.5H1081V-58.5ZM1121 -58.5H1160V-97.5H1121V-58.5ZM1161 -58.5H1200V-97.5H1161V-58.5ZM1201 -58.5H1240V-97.5H1201V-58.5ZM1241 -58.5H1280V-97.5H1241V-58.5ZM1281 -58.5H1320V-97.5H1281V-58.5ZM1321 -58.5H1360V-97.5H1321V-58.5ZM1361 -58.5H1400V-97.5H1361V-58.5ZM1401 -58.5H1440V-97.5H1401V-58.5ZM1441 -58.5H1480V-97.5H1441V-58.5ZM1481 -58.5H1520V-97.5H1481V-58.5ZM1521 -58.5H1560V-97.5H1521V-58.5ZM1561 -58.5H1600V-97.5H1561V-58.5ZM1601 -58.5H1640V-97.5H1601V-58.5ZM-79 -98.5H-40V-137.5H-79V-98.5ZM-39 -98.5H0V-137.5H-39V-98.5ZM1 -98.5H40V-137.5H1V-98.5ZM41 -98.5H80V-137.5H41V-98.5ZM81 -98.5H120V-137.5H81V-98.5ZM121 -98.5H160V-137.5H121V-98.5ZM161 -98.5H200V-137.5H161V-98.5ZM201 -98.5H240V-137.5H201V-98.5ZM241 -98.5H280V-137.5H241V-98.5ZM281 -98.5H320V-137.5H281V-98.5ZM321 -98.5H360V-137.5H321V-98.5ZM361 -98.5H400V-137.5H361V-98.5ZM401 -98.5H440V-137.5H401V-98.5ZM441 -98.5H480V-137.5H441V-98.5ZM481 -98.5H520V-137.5H481V-98.5ZM521 -98.5H560V-137.5H521V-98.5ZM561 -98.5H600V-137.5H561V-98.5ZM601 -98.5H640V-137.5H601V-98.5ZM641 -98.5H680V-137.5H641V-98.5ZM681 -98.5H720V-137.5H681V-98.5ZM721 -98.5H760V-137.5H721V-98.5ZM761 -98.5H800V-137.5H761V-98.5ZM801 -98.5H840V-137.5H801V-98.5ZM841 -98.5H880V-137.5H841V-98.5ZM881 -98.5H920V-137.5H881V-98.5ZM921 -98.5H960V-137.5H921V-98.5ZM961 -98.5H1000V-137.5H961V-98.5ZM1001 -98.5H1040V-137.5H1001V-98.5ZM1041 -98.5H1080V-137.5H1041V-98.5ZM1081 -98.5H1120V-137.5H1081V-98.5ZM1121 -98.5H1160V-137.5H1121V-98.5ZM1161 -98.5H1200V-137.5H1161V-98.5ZM1201 -98.5H1240V-137.5H1201V-98.5ZM1241 -98.5H1280V-137.5H1241V-98.5ZM1281 -98.5H1320V-137.5H1281V-98.5ZM1321 -98.5H1360V-137.5H1321V-98.5ZM1361 -98.5H1400V-137.5H1361V-98.5ZM1401 -98.5H1440V-137.5H1401V-98.5ZM1441 -98.5H1480V-137.5H1441V-98.5ZM1481 -98.5H1520V-137.5H1481V-98.5ZM1521 -98.5H1560V-137.5H1521V-98.5ZM1561 -98.5H1600V-137.5H1561V-98.5ZM1601 -98.5H1640V-137.5H1601V-98.5ZM-79 -138.5H-40V-177.5H-79V-138.5ZM-39 -138.5H0V-177.5H-39V-138.5ZM1 -138.5H40V-177.5H1V-138.5ZM41 -138.5H80V-177.5H41V-138.5ZM81 -138.5H120V-177.5H81V-138.5ZM121 -138.5H160V-177.5H121V-138.5ZM161 -138.5H200V-177.5H161V-138.5ZM201 -138.5H240V-177.5H201V-138.5ZM241 -138.5H280V-177.5H241V-138.5ZM281 -138.5H320V-177.5H281V-138.5ZM321 -138.5H360V-177.5H321V-138.5ZM361 -138.5H400V-177.5H361V-138.5ZM401 -138.5H440V-177.5H401V-138.5ZM441 -138.5H480V-177.5H441V-138.5ZM481 -138.5H520V-177.5H481V-138.5ZM521 -138.5H560V-177.5H521V-138.5ZM561 -138.5H600V-177.5H561V-138.5ZM601 -138.5H640V-177.5H601V-138.5ZM641 -138.5H680V-177.5H641V-138.5ZM681 -138.5H720V-177.5H681V-138.5ZM721 -138.5H760V-177.5H721V-138.5ZM761 -138.5H800V-177.5H761V-138.5ZM801 -138.5H840V-177.5H801V-138.5ZM841 -138.5H880V-177.5H841V-138.5ZM881 -138.5H920V-177.5H881V-138.5ZM921 -138.5H960V-177.5H921V-138.5ZM961 -138.5H1000V-177.5H961V-138.5ZM1001 -138.5H1040V-177.5H1001V-138.5ZM1041 -138.5H1080V-177.5H1041V-138.5ZM1081 -138.5H1120V-177.5H1081V-138.5ZM1121 -138.5H1160V-177.5H1121V-138.5ZM1161 -138.5H1200V-177.5H1161V-138.5ZM1201 -138.5H1240V-177.5H1201V-138.5ZM1241 -138.5H1280V-177.5H1241V-138.5ZM1281 -138.5H1320V-177.5H1281V-138.5ZM1321 -138.5H1360V-177.5H1321V-138.5ZM1361 -138.5H1400V-177.5H1361V-138.5ZM1401 -138.5H1440V-177.5H1401V-138.5ZM1441 -138.5H1480V-177.5H1441V-138.5ZM1481 -138.5H1520V-177.5H1481V-138.5ZM1521 -138.5H1560V-177.5H1521V-138.5ZM1561 -138.5H1600V-177.5H1561V-138.5ZM1601 -138.5H1640V-177.5H1601V-138.5Z"
            fill="url(#paint0_radial_193_4699)"
          />
          <defs>
            <radialGradient
              id="paint0_radial_193_4699"
              cx="0"
              cy="0"
              r="1"
              gradientUnits="userSpaceOnUse"
              gradientTransform="translate(698.33 162) rotate(90) scale(360 778.33)"
            >
              <stop stop-color="white" stop-opacity="0.1" />
              <stop offset="0.72" stop-color="white" stop-opacity="0" />
            </radialGradient>
          </defs>
        </svg>